<svg width="266" height="38" viewBox="0 0 266 38" fill="none" xmlns="http://www.w3.org/2000/svg">
<mask id="mask0_2_1026" style="mask-type:alpha" maskUnits="userSpaceOnUse" x="0" y="0" width="38" height="38">
<circle cx="19" cy="19" r="12.5" stroke="black" stroke-width="13"/>
</mask>
<g mask="url(#mask0_2_1026)">
<path d="M23 11H0L6 -0.5L15 -2L23 11Z" fill="#FF5C5C"/>
<path d="M27.5 18.5L15 -2L32 -1.5L35.5 5.5L32 12.5L30.5 16L28.5 20.5L27.5 18.5Z" fill="#E6EA6B"/>
<path d="M23 26L35.5 5.5L39.5 7L40 26H23Z" fill="#8D60AF"/>
<path d="M10 18L22 37.5L23 41.5L18 44L6.5 37L2.5 31.5L10 18Z" fill="#43BA94"/>
<path d="M26.0001 44.5C26.0001 44.5 19.2137 33.2247 14.918 26H41L40.5 30.5L35 37L26.0001 44.5Z" fill="#4F9BCE"/>
<path d="M15 11L2.5 31.5L-3 22.5L-4 11H15Z" fill="#FFC46F"/>
</g>
<path d="M59.608 26.192C60.312 26.192 60.888 26.1387 61.336 26.032C61.8053 25.904 62.1786 25.744 62.456 25.552C62.7333 25.3387 62.9253 25.0933 63.032 24.816C63.1386 24.5387 63.192 24.2293 63.192 23.888C63.192 23.1627 62.8506 22.5653 62.168 22.096C61.4853 21.6053 60.312 21.0827 58.648 20.528C57.9226 20.272 57.1973 19.984 56.472 19.664C55.7466 19.3227 55.096 18.9067 54.52 18.416C53.944 17.904 53.4746 17.296 53.112 16.592C52.7493 15.8667 52.568 14.992 52.568 13.968C52.568 12.944 52.76 12.0267 53.144 11.216C53.528 10.384 54.072 9.68001 54.776 9.10401C55.48 8.52801 56.3333 8.09068 57.336 7.79201C58.3386 7.47201 59.4693 7.31201 60.728 7.31201C62.2213 7.31201 63.512 7.47201 64.6 7.79201C65.688 8.11201 66.584 8.46401 67.288 8.84801L65.848 12.784C65.2293 12.464 64.536 12.1867 63.768 11.952C63.0213 11.696 62.1146 11.568 61.048 11.568C59.8533 11.568 58.9893 11.7387 58.456 12.08C57.944 12.4 57.688 12.9013 57.688 13.584C57.688 13.9893 57.784 14.3307 57.976 14.608C58.168 14.8853 58.4346 15.1413 58.776 15.376C59.1386 15.5893 59.544 15.792 59.992 15.984C60.4613 16.1547 60.9733 16.336 61.528 16.528C62.68 16.9547 63.6826 17.3813 64.536 17.808C65.3893 18.2133 66.0933 18.6933 66.648 19.248C67.224 19.8027 67.6506 20.4533 67.928 21.2C68.2053 21.9467 68.344 22.8533 68.344 23.92C68.344 25.9893 67.6186 27.6 66.168 28.752C64.7173 29.8827 62.5306 30.448 59.608 30.448C58.6266 30.448 57.7413 30.384 56.952 30.256C56.1626 30.1493 55.4586 30.0107 54.84 29.84C54.2426 29.6693 53.72 29.488 53.272 29.296C52.8453 29.104 52.4826 28.9227 52.184 28.752L53.592 24.784C54.2533 25.1467 55.064 25.4773 56.024 25.776C57.0053 26.0533 58.2 26.192 59.608 26.192Z" fill="#444444"/>
<path d="M77.977 18.896C77.977 19.984 78.105 20.9653 78.361 21.84C78.6383 22.7147 79.0223 23.472 79.513 24.112C80.025 24.7307 80.6436 25.2107 81.369 25.552C82.0943 25.8933 82.9263 26.064 83.865 26.064C84.7823 26.064 85.6036 25.8933 86.329 25.552C87.0756 25.2107 87.6943 24.7307 88.185 24.112C88.697 23.472 89.081 22.7147 89.337 21.84C89.6143 20.9653 89.753 19.984 89.753 18.896C89.753 17.808 89.6143 16.8267 89.337 15.952C89.081 15.056 88.697 14.2987 88.185 13.68C87.6943 13.04 87.0756 12.5493 86.329 12.208C85.6036 11.8667 84.7823 11.696 83.865 11.696C82.9263 11.696 82.0943 11.8773 81.369 12.24C80.6436 12.5813 80.025 13.072 79.513 13.712C79.0223 14.3307 78.6383 15.088 78.361 15.984C78.105 16.8587 77.977 17.8293 77.977 18.896ZM94.905 18.896C94.905 20.7947 94.617 22.4693 94.041 23.92C93.4863 25.3493 92.7183 26.5547 91.737 27.536C90.7556 28.496 89.5823 29.2213 88.217 29.712C86.873 30.2027 85.4223 30.448 83.865 30.448C82.3503 30.448 80.921 30.2027 79.577 29.712C78.233 29.2213 77.0596 28.496 76.057 27.536C75.0543 26.5547 74.265 25.3493 73.689 23.92C73.113 22.4693 72.825 20.7947 72.825 18.896C72.825 16.9973 73.1236 15.3333 73.721 13.904C74.3183 12.4533 75.1183 11.2373 76.121 10.256C77.145 9.27468 78.3183 8.53868 79.641 8.04801C80.985 7.55735 82.393 7.31201 83.865 7.31201C85.3796 7.31201 86.809 7.55735 88.153 8.04801C89.497 8.53868 90.6703 9.27468 91.673 10.256C92.6756 11.2373 93.465 12.4533 94.041 13.904C94.617 15.3333 94.905 16.9973 94.905 18.896Z" fill="#444444"/>
<path d="M100.666 30V7.82401H115.514V12.016H105.658V16.656H114.426V20.848H105.658V30H100.666Z" fill="#444444"/>
<path d="M137.777 7.82401V12.08H131.089V30H126.097V12.08H119.409V7.82401H137.777Z" fill="#444444"/>
<path d="M146.2 2.94409H152.664V4.54409H148.184V32.3201H152.664V33.9201H146.2V2.94409Z" fill="#444444"/>
<path d="M169.374 10.5441C170.398 13.9788 171.422 17.0934 172.446 19.8881C173.492 22.6614 174.505 25.2108 175.486 27.5361C176.233 25.0188 176.969 22.0534 177.694 18.6401C178.441 15.2268 179.156 11.6214 179.838 7.82409H181.982C181.598 10.1068 181.204 12.2508 180.798 14.2561C180.414 16.2401 180.009 18.1388 179.582 19.9521C179.156 21.7441 178.708 23.4721 178.238 25.1361C177.769 26.7788 177.257 28.4001 176.702 30.0001H174.366C173.854 28.7841 173.342 27.5681 172.83 26.3521C172.34 25.1361 171.849 23.8881 171.358 22.6081C170.868 21.3068 170.377 19.9521 169.886 18.5441C169.396 17.1361 168.894 15.6428 168.382 14.0641C167.87 15.6428 167.358 17.1361 166.846 18.5441C166.356 19.9521 165.865 21.3068 165.374 22.6081C164.884 23.8881 164.382 25.1361 163.87 26.3521C163.38 27.5681 162.878 28.7841 162.366 30.0001H160.062C159.486 28.4001 158.953 26.7788 158.462 25.1361C157.993 23.4721 157.545 21.7441 157.118 19.9521C156.713 18.1388 156.318 16.2401 155.934 14.2561C155.572 12.2508 155.198 10.1068 154.814 7.82409H157.054C157.374 9.70143 157.705 11.5468 158.046 13.3601C158.388 15.1521 158.74 16.8908 159.102 18.5761C159.486 20.2614 159.87 21.8614 160.254 23.3761C160.66 24.8694 161.054 26.2561 161.438 27.5361C162.356 25.1681 163.337 22.6081 164.382 19.8561C165.428 17.0828 166.462 13.9788 167.486 10.5441H169.374Z" fill="#444444"/>
<path d="M202.304 30.0001C201.899 28.9121 201.515 27.8668 201.152 26.8641C200.79 25.8614 200.438 24.8801 200.096 23.9201H189.312C188.95 24.8801 188.587 25.8614 188.224 26.8641C187.862 27.8668 187.488 28.9121 187.104 30.0001H184.832C185.686 27.6961 186.486 25.5521 187.232 23.5681C187.979 21.5628 188.704 19.6748 189.408 17.9041C190.134 16.1121 190.848 14.3948 191.552 12.7521C192.256 11.1094 193.003 9.46676 193.792 7.82409H195.712C196.502 9.46676 197.248 11.1094 197.952 12.7521C198.656 14.3948 199.36 16.1121 200.064 17.9041C200.79 19.6748 201.526 21.5628 202.272 23.5681C203.019 25.5521 203.83 27.6961 204.704 30.0001H202.304ZM194.688 10.3201C193.878 12.1548 193.088 14.0214 192.32 15.9201C191.574 17.8188 190.795 19.8668 189.984 22.0641H199.424C198.614 19.8668 197.824 17.8188 197.056 15.9201C196.288 14.0214 195.499 12.1548 194.688 10.3201Z" fill="#444444"/>
<path d="M224.276 14.4801C224.276 16.1441 223.839 17.4561 222.964 18.4161C222.09 19.3761 220.938 20.0694 219.508 20.4961C219.85 20.9228 220.287 21.4988 220.82 22.2241C221.375 22.9494 221.94 23.7494 222.516 24.6241C223.092 25.4774 223.658 26.3734 224.212 27.3121C224.767 28.2508 225.236 29.1468 225.62 30.0001H223.284C222.836 29.1468 222.346 28.2934 221.812 27.4401C221.3 26.5868 220.767 25.7654 220.212 24.9761C219.679 24.1654 219.156 23.4188 218.644 22.7361C218.132 22.0534 217.684 21.4561 217.3 20.9441C216.618 21.0081 215.935 21.0401 215.252 21.0401H211.668V30.0001H209.492V8.24009C210.26 8.02676 211.156 7.87743 212.18 7.79209C213.226 7.68543 214.186 7.63209 215.06 7.63209C218.111 7.63209 220.404 8.20809 221.94 9.36009C223.498 10.5121 224.276 12.2188 224.276 14.4801ZM215.316 9.52009C214.506 9.52009 213.791 9.55209 213.172 9.61609C212.575 9.65876 212.074 9.70143 211.668 9.74409V19.1841H214.676C215.679 19.1841 216.628 19.1414 217.524 19.0561C218.42 18.9494 219.199 18.7361 219.86 18.4161C220.522 18.0748 221.044 17.5948 221.428 16.9761C221.812 16.3574 222.004 15.5148 222.004 14.4481C222.004 13.4668 221.812 12.6561 221.428 12.0161C221.044 11.3761 220.543 10.8748 219.924 10.5121C219.306 10.1281 218.591 9.87209 217.78 9.74409C216.991 9.59476 216.17 9.52009 215.316 9.52009Z" fill="#444444"/>
<path d="M230.874 7.82409H233.05V30.0001H230.874V7.82409Z" fill="#444444"/>
<path d="M249.627 30.4801C248.198 30.4801 246.865 30.2241 245.627 29.7121C244.411 29.2001 243.345 28.4534 242.427 27.4721C241.531 26.4908 240.817 25.2854 240.283 23.8561C239.771 22.4054 239.515 20.7521 239.515 18.8961C239.515 17.0401 239.793 15.3974 240.347 13.9681C240.923 12.5174 241.681 11.3014 242.619 10.3201C243.558 9.33876 244.646 8.60276 245.883 8.11209C247.121 7.60009 248.411 7.34409 249.755 7.34409C250.587 7.34409 251.345 7.39743 252.027 7.50409C252.71 7.61076 253.307 7.74943 253.819 7.92009C254.331 8.06943 254.769 8.22943 255.131 8.40009C255.494 8.54943 255.771 8.68809 255.963 8.81609L255.259 10.7041C254.726 10.3841 254.043 10.0748 253.211 9.77609C252.401 9.45609 251.387 9.29609 250.171 9.29609C248.785 9.29609 247.569 9.53076 246.523 10.0001C245.499 10.4694 244.635 11.1308 243.931 11.9841C243.227 12.8374 242.694 13.8508 242.331 15.0241C241.99 16.1974 241.819 17.4988 241.819 18.9281C241.819 20.4001 241.99 21.7334 242.331 22.9281C242.694 24.1014 243.217 25.1041 243.899 25.9361C244.582 26.7681 245.414 27.4081 246.395 27.8561C247.398 28.3041 248.539 28.5281 249.819 28.5281C251.227 28.5281 252.401 28.4001 253.339 28.1441C254.299 27.8668 255.025 27.5894 255.515 27.3121L256.123 29.1681C255.974 29.2748 255.718 29.4028 255.355 29.5521C254.993 29.6801 254.534 29.8188 253.979 29.9681C253.425 30.1174 252.785 30.2348 252.059 30.3201C251.334 30.4268 250.523 30.4801 249.627 30.4801Z" fill="#444444"/>
<path d="M265.351 33.9201H258.887V32.3201H263.367V4.54409H258.887V2.94409H265.351V33.9201Z" fill="#444444"/>
</svg>
